<?xml version="1.0" standalone="no"?>
<!DOCTYPE svg PUBLIC "-//W3C//DTD SVG 20010904//EN"
 "http://www.w3.org/TR/2001/REC-SVG-20010904/DTD/svg10.dtd">
<svg version="1.0" xmlns="http://www.w3.org/2000/svg"
 width="225.000000pt" height="225.000000pt" viewBox="0 0 225.000000 225.000000"
 preserveAspectRatio="xMidYMid meet" color="aqua">
<metadata>
Created by potrace 1.16, written by Peter Selinger 2001-2019
</metadata>
<g transform="translate(0.000000,225.000000) scale(0.100000,-0.100000)"
fill="#000000" stroke="none">
<path d="M1366 2158 c-9 -12 -16 -31 -16 -41 0 -17 -6 -18 -67 -12 -76 7 -218
-7 -307 -30 -154 -40 -261 -101 -371 -210 -65 -64 -90 -98 -125 -169 l-44 -89
38 -33 c43 -37 112 -64 165 -64 36 0 36 0 53 65 51 194 206 387 368 457 72 31
230 65 244 51 2 -2 -19 -28 -48 -56 -64 -66 -110 -143 -153 -259 -37 -98 -93
-299 -93 -335 0 -31 61 -77 131 -98 67 -21 66 -16 43 -132 l-17 -83 -486 0
c-468 0 -531 -3 -531 -20 0 -5 214 -9 475 -10 262 0 489 -3 504 -6 l28 -6 -14
-86 c-7 -48 -19 -121 -27 -162 -68 -363 -79 -439 -66 -455 32 -38 64 -7 75 75
4 25 13 77 20 115 7 39 23 122 35 185 12 63 32 168 46 233 13 64 24 119 24
122 0 3 7 5 15 5 8 0 15 -5 15 -11 0 -7 124 -9 405 -7 319 2 405 0 405 -9 0
-7 5 -13 11 -13 5 0 7 -5 3 -12 -4 -7 -3 -8 5 -4 9 6 9 11 0 22 -6 8 -8 14 -3
14 5 0 0 7 -10 15 -17 13 -85 15 -433 15 -227 0 -413 3 -413 8 0 4 7 42 15 85
8 43 15 80 15 82 0 2 40 4 88 3 62 0 97 4 119 15 30 16 31 18 43 130 17 147 9
401 -15 477 -10 30 -26 72 -37 93 -11 22 -18 40 -16 42 2 2 32 -11 68 -28 89
-44 204 -158 253 -254 57 -110 79 -205 79 -351 1 -107 3 -124 19 -132 28 -15
155 -12 195 5 l36 15 -7 77 c-8 88 -43 205 -82 273 -104 179 -297 332 -505
397 l-88 28 0 36 c0 57 -36 78 -64 37z"/>
<path d="M521 443 c-25 -27 27 -46 74 -28 19 8 19 8 3 -12 -10 -11 -18 -25
-18 -31 0 -7 -4 -12 -10 -12 -5 0 -7 6 -4 13 4 11 -6 12 -45 7 -38 -5 -48 -3
-44 7 8 21 -6 63 -21 63 -8 0 -16 -8 -19 -19 -3 -13 -26 -25 -76 -40 -39 -12
-71 -26 -71 -31 0 -5 32 -19 70 -31 l70 -23 0 -42 c0 -54 10 -104 21 -104 5 0
17 9 27 21 9 12 31 37 48 56 l30 35 72 -21 c40 -12 77 -19 82 -16 6 4 -10 33
-36 67 l-46 60 19 26 c11 15 25 36 30 47 10 19 8 20 -35 16 -36 -3 -42 -6 -27
-11 13 -6 5 -8 -26 -7 -26 1 -45 5 -43 9 9 14 -12 15 -25 1z"/>
</g>
</svg>
